<?xml version="1.0" standalone="no"?>
<!DOCTYPE svg PUBLIC "-//W3C//DTD SVG 20010904//EN"
 "http://www.w3.org/TR/2001/REC-SVG-20010904/DTD/svg10.dtd">
<svg version="1.0" xmlns="http://www.w3.org/2000/svg"
 width="512.000000pt" height="512.000000pt" viewBox="0 0 512.000000 512.000000"
 preserveAspectRatio="xMidYMid meet">
<metadata>
Created by potrace 1.11, written by Peter Selinger 2001-2013
</metadata>
<g transform="translate(0.000000,512.000000) scale(0.100000,-0.100000)"
fill="#000000" stroke="none">
<path d="M865 4704 c-80 -42 -92 -70 -145 -339 -5 -27 -11 -59 -14 -70 -8 -34
-35 -160 -40 -185 -4 -26 -26 -126 -51 -240 -8 -36 -17 -76 -19 -90 -3 -14
-18 -88 -35 -165 -44 -209 -102 -478 -106 -495 -2 -8 -11 -51 -20 -95 -9 -44
-19 -89 -21 -100 -3 -11 -9 -40 -14 -65 -12 -62 -57 -271 -135 -635 -36 -170
-69 -321 -71 -335 -3 -14 -16 -77 -30 -140 -14 -63 -27 -128 -30 -145 -3 -16
-16 -77 -29 -135 -13 -58 -26 -116 -29 -130 -2 -14 -10 -50 -16 -80 -6 -30
-14 -66 -16 -80 -3 -14 -12 -54 -20 -90 -31 -134 -15 -204 59 -248 28 -17 165
-52 266 -68 20 -3 39 -8 42 -10 5 -3 103 -23 239 -50 14 -3 33 -7 42 -10 10
-3 30 -8 45 -10 16 -3 80 -16 143 -30 63 -14 131 -27 150 -30 19 -3 44 -11 55
-17 11 -6 21 -9 23 -8 2 3 80 -8 107 -15 6 -1 118 -25 250 -53 132 -28 258
-55 280 -61 22 -5 54 -12 70 -15 35 -6 32 -6 189 -39 65 -14 150 -26 189 -26
70 0 71 0 112 43 33 35 43 54 52 102 6 33 26 125 43 205 17 80 44 209 61 288
l30 142 -46 212 c-38 178 -55 244 -55 216 0 -3 -13 -67 -29 -144 -17 -76 -32
-150 -34 -164 -14 -74 -18 -81 -46 -76 -47 8 -256 54 -271 60 -8 3 -32 7 -52
10 -21 3 -59 11 -85 17 -63 14 -82 18 -118 25 -16 3 -73 14 -125 26 -52 11
-106 22 -120 25 -14 2 -41 8 -60 13 -19 5 -71 16 -115 25 -44 9 -89 19 -100
21 -11 3 -29 7 -41 9 -43 9 -310 67 -329 71 -11 2 -29 6 -40 8 -75 14 -283 59
-295 63 -8 3 -22 7 -30 8 -8 1 -46 7 -83 14 -54 11 -67 17 -63 30 5 17 13 57
22 105 2 15 12 58 21 95 8 36 17 75 18 86 4 24 106 506 141 665 14 63 28 126
30 140 9 48 13 66 29 140 34 153 45 206 51 235 3 17 12 59 20 95 8 36 17 81
20 100 3 19 8 38 10 41 2 3 6 20 9 38 3 18 19 97 36 174 73 343 99 461 103
465 3 2 39 -3 80 -12 41 -10 85 -19 98 -21 13 -3 66 -14 118 -25 52 -12 178
-38 280 -60 102 -21 219 -46 260 -55 41 -10 84 -18 95 -20 11 -1 38 -8 60 -14
22 -6 48 -11 58 -11 19 0 18 11 -4 110 -6 25 -12 53 -15 64 -2 10 -5 20 -6 21
-2 1 -48 11 -103 23 -402 86 -683 145 -765 162 -30 6 -62 14 -70 17 -8 3 -23
5 -34 4 -15 -2 -17 2 -13 21 3 12 17 82 33 153 15 72 30 133 33 137 4 4 22 3
41 -2 19 -5 49 -11 65 -14 17 -2 82 -16 145 -30 63 -13 126 -27 140 -30 40 -7
361 -75 405 -86 22 -5 54 -12 70 -15 17 -3 41 -7 54 -10 18 -3 35 5 64 31 46
42 102 69 178 86 l54 12 -45 8 c-25 5 -74 15 -110 23 -56 12 -275 59 -465 99
-11 2 -63 13 -115 24 -527 113 -517 111 -565 86z m-422 -3284 c78 -17 205 -44
282 -61 77 -16 151 -32 165 -35 14 -3 36 -8 50 -11 14 -2 77 -15 140 -29 63
-14 131 -27 150 -30 19 -3 38 -8 41 -9 4 -3 67 -17 229 -50 26 -5 395 -84 540
-115 74 -16 150 -32 167 -35 41 -8 44 -14 33 -56 -10 -37 -18 -77 -26 -124
-20 -121 -63 -280 -75 -279 -11 1 -307 61 -389 79 -78 18 -265 57 -305 65 -27
6 -59 12 -70 14 -11 3 -74 17 -140 31 -66 15 -131 29 -145 31 -14 3 -86 18
-160 34 -219 47 -472 101 -520 110 -44 9 -68 15 -112 26 -13 3 -40 8 -60 11
-46 7 -46 4 -13 153 14 63 35 159 47 213 12 53 23 97 25 97 3 0 68 -14 146
-30z"/>
<path d="M1176 1160 c-65 -20 -114 -98 -103 -166 12 -74 92 -138 161 -127 85
13 128 59 134 144 5 66 -13 98 -76 136 -39 24 -68 27 -116 13z"/>
<path d="M4025 4690 c-71 -16 -143 -32 -160 -35 -16 -4 -104 -22 -195 -41 -91
-19 -176 -37 -190 -40 -21 -3 -95 -19 -275 -59 -11 -3 -76 -16 -145 -31 -69
-14 -163 -35 -210 -45 -47 -11 -96 -21 -110 -23 -25 -3 -223 -45 -335 -71 -52
-12 -86 -19 -190 -39 -90 -18 -135 -42 -164 -89 -31 -50 -30 -81 6 -252 41
-189 37 -174 63 -294 11 -53 33 -161 50 -241 17 -80 47 -219 66 -310 18 -91
38 -183 44 -205 5 -22 33 -150 61 -285 28 -135 53 -254 55 -265 3 -11 7 -31
10 -45 3 -14 25 -119 50 -235 52 -247 46 -219 78 -370 14 -66 35 -163 46 -215
12 -52 25 -115 30 -140 5 -25 21 -99 35 -165 15 -66 28 -129 31 -140 4 -21 32
-157 38 -190 2 -11 11 -51 20 -90 9 -38 18 -81 20 -95 10 -55 37 -167 48 -193
6 -15 26 -41 45 -57 31 -27 40 -30 104 -30 60 0 208 26 399 71 25 6 99 22 165
35 140 29 129 27 282 60 65 14 129 27 143 30 14 2 77 16 141 29 63 14 124 27
135 29 32 6 164 35 239 51 39 8 135 29 215 46 80 17 154 32 165 35 177 37 208
49 243 95 26 33 40 78 35 114 -4 30 -16 92 -47 230 -8 39 -17 82 -20 95 -27
131 -105 501 -122 575 -3 11 -9 40 -14 65 -5 25 -23 110 -40 190 -17 80 -35
165 -40 190 -5 25 -20 99 -35 165 -39 179 -64 297 -69 325 -3 14 -16 79 -31
145 -14 66 -28 131 -31 145 -3 14 -21 99 -40 190 -52 242 -105 491 -110 523
-3 15 -11 50 -18 77 -7 27 -12 62 -12 79 1 16 -2 27 -6 24 -5 -2 -8 3 -8 11 0
20 1 14 -15 84 -8 33 -16 70 -18 83 -22 120 -92 420 -103 441 -8 15 -30 39
-49 54 -51 38 -105 39 -260 4z m164 -230 c6 -30 19 -95 30 -145 10 -49 17 -93
15 -96 -2 -4 -32 -12 -66 -19 -35 -6 -72 -14 -83 -17 -11 -2 -31 -6 -45 -9
-14 -3 -33 -7 -42 -10 -9 -3 -27 -7 -40 -9 -26 -5 -110 -23 -148 -31 -14 -3
-35 -7 -48 -10 -13 -2 -76 -16 -140 -30 -64 -14 -128 -28 -142 -30 -14 -2 -45
-9 -70 -14 -25 -6 -56 -13 -69 -15 -32 -6 -260 -54 -286 -61 -11 -2 -85 -18
-165 -35 -80 -17 -152 -32 -160 -34 -8 -2 -51 -11 -95 -20 -44 -9 -96 -20
-115 -25 -19 -5 -46 -11 -60 -14 -14 -2 -59 -11 -100 -20 -41 -9 -76 -16 -76
-16 -1 0 -5 7 -8 16 -3 9 -2 12 5 8 7 -4 7 -1 0 12 -10 18 -61 244 -61 269 0
6 28 17 63 24 34 6 73 14 87 17 14 3 36 7 49 10 12 3 53 12 90 20 36 9 77 18
91 20 14 3 79 16 145 30 66 14 192 41 280 60 88 18 224 47 302 64 79 17 207
44 285 61 79 17 154 33 168 35 14 3 77 16 140 30 205 45 244 52 252 45 3 -3
11 -31 17 -61z m98 -460 c2 -14 17 -87 33 -162 40 -183 80 -371 130 -608 22
-107 47 -224 55 -260 8 -36 17 -76 19 -90 3 -14 21 -99 40 -190 20 -91 45
-210 57 -265 28 -136 27 -134 33 -153 3 -9 8 -30 11 -47 2 -16 32 -156 64
-310 33 -154 59 -281 58 -281 -1 -1 -15 -4 -32 -7 -16 -3 -52 -10 -80 -17 -27
-6 -133 -29 -235 -50 -146 -30 -436 -92 -595 -126 -11 -3 -49 -11 -85 -18
-124 -26 -356 -76 -520 -111 -284 -61 -403 -85 -407 -82 -4 4 -51 222 -59 277
-3 19 -8 38 -10 42 -2 3 -8 28 -14 55 -5 26 -23 113 -40 193 -17 80 -35 165
-40 190 -5 25 -18 88 -30 140 -31 143 -80 372 -85 400 -3 14 -12 57 -20 95 -8
39 -25 113 -36 165 -11 52 -22 104 -25 115 -2 11 -7 34 -10 50 -3 17 -14 71
-25 120 -11 50 -31 144 -45 210 -14 66 -27 129 -30 140 -2 11 -7 33 -9 48 -3
15 -12 55 -19 88 -17 70 -18 69 94 89 36 7 72 14 80 15 96 22 623 135 745 159
11 3 72 16 135 30 63 14 126 27 140 30 23 4 205 43 240 51 8 2 105 22 215 46
110 23 214 45 230 50 49 12 68 7 72 -21z m544 -2557 c0 -8 6 -38 14 -78 2 -11
4 -20 5 -20 1 0 3 -9 5 -20 3 -11 18 -85 35 -164 16 -79 30 -149 30 -156 0 -7
-19 -16 -42 -20 -24 -4 -52 -9 -63 -11 -11 -2 -49 -11 -85 -19 -36 -8 -184
-40 -330 -70 -146 -31 -335 -71 -420 -90 -85 -19 -168 -36 -185 -39 -16 -3
-70 -14 -120 -25 -49 -11 -189 -41 -310 -66 -121 -25 -249 -52 -285 -61 -36
-8 -75 -17 -87 -19 -26 -6 -31 1 -37 46 -3 19 -12 63 -20 99 -8 36 -17 76 -20
90 -2 14 -9 48 -15 75 -6 28 -13 61 -15 75 -3 14 -8 34 -11 46 -6 21 14 26
275 78 14 3 43 10 65 15 22 5 51 12 65 14 14 3 36 8 50 11 14 3 36 8 50 10 14
2 131 27 260 55 129 28 246 52 260 55 14 3 68 14 120 26 52 11 140 30 195 41
55 11 116 24 135 29 19 5 49 12 65 14 17 3 39 8 50 10 106 23 176 38 205 42
19 3 38 8 41 10 4 2 24 6 45 10 22 3 41 8 43 10 7 7 31 4 32 -3z"/>
<path d="M3420 4260 c-47 -11 -130 -28 -185 -40 -165 -35 -290 -63 -293 -66
-2 -1 -1 -21 3 -44 8 -46 7 -45 100 -26 11 2 79 16 150 32 72 15 177 37 234
48 59 12 106 27 109 34 7 22 -8 82 -21 81 -7 0 -50 -9 -97 -19z"/>
<path d="M4145 3581 c-11 -4 -116 -28 -233 -52 l-213 -43 6 -36 c11 -54 11
-54 19 -78 5 -15 13 -21 24 -18 19 6 250 54 298 63 22 3 31 1 31 -8 1 -8 11
-59 22 -114 12 -55 27 -126 33 -158 11 -55 13 -57 37 -53 14 3 41 8 60 11 45
8 53 13 47 33 -3 10 -7 28 -10 42 -2 14 -10 48 -16 75 -7 28 -14 64 -17 80
-12 74 -54 250 -61 256 -4 4 -16 4 -27 0z"/>
<path d="M3035 3343 c-52 -12 -353 -75 -375 -79 -45 -8 -60 -15 -60 -27 2 -38
98 -462 106 -462 35 2 115 18 119 25 3 5 1 28 -4 52 -6 24 -12 54 -15 68 -2
14 -14 69 -26 123 -12 55 -20 100 -18 101 2 1 52 13 113 25 60 13 114 24 120
26 5 1 32 5 59 10 l48 8 -7 41 c-4 22 -8 48 -10 56 -2 8 -4 21 -4 28 -1 12
-10 13 -46 5z"/>
<path d="M4328 2468 c-27 -6 -48 -14 -48 -18 0 -4 16 -81 35 -171 25 -119 32
-165 23 -170 -11 -7 -96 -22 -100 -18 -2 1 -12 -3 -24 -9 -16 -8 -24 -8 -34 1
-10 9 -11 9 -6 0 5 -9 0 -13 -13 -14 -12 -1 -24 -2 -28 -4 -5 -1 -26 -5 -48
-10 -22 -5 -43 -10 -47 -11 -5 -1 -13 -2 -19 -3 -11 -1 -8 -34 6 -91 2 -8 4
-22 4 -31 1 -14 14 -13 114 8 61 13 124 25 139 28 16 3 56 12 90 20 35 8 79
17 98 20 19 3 36 8 38 10 4 4 -1 33 -48 254 -11 51 -17 97 -14 102 3 5 1 9 -4
9 -5 0 -13 24 -18 53 -10 59 -17 62 -96 45z"/>
<path d="M2949 2176 c-2 -3 -18 -7 -34 -10 -85 -16 -87 -16 -80 -43 5 -23 61
-285 69 -323 12 -67 31 -130 37 -130 5 0 48 9 96 20 48 12 99 23 113 25 43 6
251 53 256 57 2 2 -2 32 -8 67 l-12 63 -35 -6 c-20 -3 -46 -8 -58 -11 -13 -3
-33 -7 -45 -10 -13 -2 -54 -11 -93 -19 -126 -27 -118 -29 -131 39 -7 33 -15
71 -18 85 -3 14 -13 61 -22 105 -15 76 -25 101 -35 91z"/>
<path d="M3831 1152 c-92 -45 -112 -170 -38 -242 27 -27 41 -33 103 -44 32 -6
98 28 124 63 31 44 36 98 14 146 -9 22 -16 43 -16 48 1 4 -1 6 -5 5 -5 -1 -21
6 -36 16 -37 25 -104 29 -146 8z"/>
<path d="M1596 4229 c-4 -23 -5 -43 -3 -45 7 -7 230 -55 240 -51 5 1 11 21 12
44 l2 40 -51 12 c-28 6 -62 13 -76 16 -55 10 -86 17 -101 21 -13 3 -18 -5 -23
-37z"/>
<path d="M941 3533 c-9 -36 -18 -72 -26 -118 -9 -46 -17 -85 -37 -170 -11 -49
-23 -106 -26 -125 -12 -76 -14 -73 73 -92 175 -38 322 -69 352 -74 18 -3 45
-9 60 -13 l28 -8 22 101 c13 56 25 117 29 136 3 19 17 86 30 147 13 62 24 121
24 131 0 17 -27 26 -150 49 -14 2 -45 9 -70 15 -25 5 -58 12 -75 15 -16 2 -55
11 -85 18 -30 8 -74 16 -97 20 -42 6 -42 6 -52 -32z m240 -128 c63 -14 124
-27 135 -30 20 -4 21 -8 12 -47 -12 -52 -10 -43 -33 -156 l-20 -93 -35 5 c-41
6 -59 10 -160 33 -41 9 -81 16 -88 16 -15 0 -12 30 19 167 11 47 22 95 24 108
7 27 8 27 146 -3z"/>
<path d="M1072 3293 c-8 -37 -15 -78 -18 -89 -4 -19 4 -23 82 -38 66 -13 89
-15 94 -6 10 16 34 159 28 165 -4 5 -85 22 -143 31 -30 5 -30 5 -43 -63z"/>
<path d="M1526 3441 c-3 -5 -8 -26 -12 -47 -3 -22 -7 -43 -7 -48 -2 -10 23
-17 134 -39 l67 -14 11 56 c12 59 7 70 -34 72 -22 1 -27 2 -95 18 -56 13 -58
13 -64 2z"/>
<path d="M1800 3386 c0 -3 -38 -188 -62 -296 -5 -25 -12 -56 -14 -70 -10 -48
-25 -115 -30 -131 -5 -17 -2 -17 93 -35 22 -4 27 9 49 126 3 14 16 77 30 140
14 63 29 138 35 165 5 28 12 57 14 66 4 13 -5 19 -39 28 -45 11 -76 14 -76 7z"/>
<path d="M1975 3313 c-12 -64 -14 -72 -58 -278 -47 -214 -47 -211 6 -221 13
-2 65 -12 116 -23 l93 -19 -7 32 c-3 17 -9 45 -12 63 -5 29 -10 33 -49 39 -51
7 -53 14 -29 119 17 71 20 115 11 155 -11 50 -27 126 -32 148 -7 35 -31 26
-39 -15z"/>
<path d="M1495 3228 c-4 -12 -105 -486 -105 -493 0 -2 17 -6 38 -11 20 -4 39
-8 42 -9 4 -1 47 -10 95 -20 28 -6 123 -26 143 -30 13 -2 32 -7 41 -10 15 -4
20 5 30 51 7 30 11 57 9 58 -3 3 -109 28 -200 47 -62 13 -59 7 -44 79 3 14 8
36 11 50 3 14 7 34 9 45 2 11 12 54 21 95 32 146 34 136 -25 149 -63 14 -60
14 -65 -1z"/>
<path d="M819 2973 c0 -4 -3 -21 -6 -38 -13 -74 -15 -73 132 -100 17 -4 81
-17 143 -31 63 -13 115 -24 118 -24 2 0 1 -13 -2 -29 -7 -34 -2 -38 62 -46
l49 -7 18 83 c9 45 15 84 13 86 -4 4 -439 100 -493 109 -18 3 -33 2 -34 -3z"/>
<path d="M763 2706 c-11 -50 -17 -95 -12 -100 4 -4 75 -23 158 -40 133 -29
151 -31 155 -17 7 26 19 75 22 88 2 10 -53 26 -172 49 -30 6 -31 7 -23 42 10
44 5 50 -46 57 -22 3 -45 8 -50 9 -6 2 -20 -36 -32 -88z"/>
<path d="M1856 2748 c-15 -48 -75 -362 -71 -366 3 -3 12 -7 20 -8 8 -1 32 -5
53 -9 l38 -6 24 120 c13 66 26 125 30 131 5 8 21 8 56 0 61 -14 69 -16 123
-25 l43 -7 -7 43 c-10 61 -21 86 -37 86 -14 1 -35 5 -108 22 -25 5 -58 12 -75
15 -16 3 -42 8 -58 12 -18 4 -28 1 -31 -8z"/>
<path d="M1176 2607 c-3 -13 -8 -40 -11 -60 l-6 -35 58 -12 c32 -6 74 -16 93
-21 23 -6 36 -5 38 1 2 6 8 8 13 5 5 -4 6 0 3 8 -2 7 -1 32 5 55 8 40 8 42
-13 42 -13 0 -26 3 -30 7 -3 4 -14 8 -24 9 -36 6 -88 15 -103 20 -11 3 -19 -3
-23 -19z"/>
<path d="M1453 2558 c-1 -11 -7 -47 -16 -91 -2 -9 51 -25 139 -42 l21 -5 -19
-86 c-10 -48 -17 -88 -15 -90 5 -5 110 -25 112 -22 1 2 14 59 28 128 15 69 29
132 31 142 4 15 -29 29 -114 45 -13 2 -55 11 -93 19 -37 8 -70 14 -71 14 -1 0
-3 -6 -3 -12z"/>
<path d="M725 2517 c-18 -78 -35 -157 -40 -186 -3 -18 -19 -93 -35 -166 -17
-73 -30 -137 -30 -143 0 -11 31 -20 120 -36 19 -3 116 -24 215 -45 99 -22 183
-37 187 -33 4 4 19 61 33 127 14 66 28 127 30 136 2 9 6 32 9 50 3 19 14 73
25 121 l19 86 -37 8 c-20 4 -40 8 -46 10 -5 1 -46 9 -90 19 -44 9 -89 19 -100
21 -11 2 -33 7 -50 10 -16 3 -55 11 -85 18 -111 28 -119 28 -125 3z m210 -143
c39 -8 95 -19 126 -25 l56 -11 -13 -61 c-8 -34 -19 -84 -24 -112 -6 -27 -13
-61 -16 -75 -3 -14 -6 -31 -6 -37 -1 -7 -2 -13 -3 -13 -1 0 -51 11 -111 24
-60 13 -126 27 -146 30 -37 7 -38 8 -32 44 3 20 17 85 30 144 13 59 24 109 24
113 0 3 10 3 23 0 12 -3 54 -12 92 -21z"/>
<path d="M861 2291 c-5 -20 -12 -52 -16 -71 -4 -19 -9 -42 -11 -51 -4 -13 13
-21 82 -38 48 -11 89 -20 90 -18 2 1 5 14 8 27 2 14 10 51 17 83 6 31 9 60 6
64 -4 3 -43 14 -87 24 l-80 17 -9 -37z"/>
<path d="M2035 2519 c-9 -27 -35 -150 -35 -167 0 -14 21 -22 103 -40 134 -29
129 -30 122 16 -12 78 -22 92 -64 92 -22 0 -23 3 -17 44 7 42 6 44 -22 49 -17
3 -41 9 -56 13 -17 4 -27 2 -31 -7z"/>
<path d="M1309 2360 c-1 -11 -2 -23 -3 -27 -10 -41 -17 -72 -20 -89 -3 -12
-18 -83 -35 -158 -17 -76 -31 -147 -31 -157 0 -11 -4 -18 -9 -15 -5 4 -7 -3
-4 -13 4 -15 22 -23 76 -35 116 -24 119 -24 127 4 23 86 22 88 -20 95 -22 4
-40 8 -40 10 0 2 7 37 16 77 16 76 17 80 34 163 6 28 13 61 16 75 15 71 17 66
-37 78 -66 16 -69 15 -70 -8z"/>
<path d="M1750 2257 c-7 -34 -14 -71 -16 -82 -3 -11 -12 -51 -20 -90 -8 -38
-17 -79 -19 -90 -3 -12 -13 -62 -23 -111 l-19 -91 96 -22 c104 -24 103 -24
174 -36 26 -4 47 -11 47 -16 0 -5 6 -6 13 -4 6 3 53 -4 102 -14 50 -11 92 -17
94 -15 2 2 17 66 33 141 16 76 31 145 33 153 24 106 27 141 15 188 l-11 50
-57 12 c-265 56 -321 68 -408 84 -19 4 -23 -2 -34 -57z m200 -98 c19 -4 48
-10 64 -13 68 -12 136 -28 136 -31 0 -11 -59 -288 -62 -291 -2 -1 -21 1 -43 6
-22 5 -51 11 -65 14 -77 15 -173 37 -181 42 -5 3 -7 9 -5 13 3 4 15 54 26 112
12 57 26 119 31 136 11 36 7 35 99 12z"/>
<path d="M1904 2095 c-8 -21 -41 -160 -39 -163 1 -1 41 -11 89 -21 64 -14 88
-16 91 -8 11 35 35 160 32 164 -3 2 -15 6 -28 8 -13 3 -50 11 -82 19 -48 11
-59 11 -63 1z"/>
<path d="M1540 2148 c0 -2 -9 -46 -21 -98 -11 -52 -22 -104 -25 -115 -2 -11
-6 -33 -10 -50 -3 -16 -8 -39 -11 -50 -3 -11 -2 -17 1 -14 4 4 30 1 59 -7 28
-7 52 -12 53 -11 2 3 71 322 70 324 -1 1 -15 4 -31 7 -17 3 -42 8 -57 12 -16
3 -28 4 -28 2z"/>
</g>
</svg>
